<?xml version="1.0" encoding="UTF-8" standalone="no"?>
<svg
   width="72"
   height="72"
   fill="none"
   version="1.1"
   id="svg204"
   sodipodi:docname="android.svg"
   inkscape:version="1.2.2 (b0a8486541, 2022-12-01)"
   xmlns:inkscape="http://www.inkscape.org/namespaces/inkscape"
   xmlns:sodipodi="http://sodipodi.sourceforge.net/DTD/sodipodi-0.dtd"
   xmlns="http://www.w3.org/2000/svg"
   xmlns:svg="http://www.w3.org/2000/svg">
  <sodipodi:namedview
     id="namedview206"
     pagecolor="#ffffff"
     bordercolor="#999999"
     borderopacity="1"
     inkscape:showpageshadow="0"
     inkscape:pageopacity="0"
     inkscape:pagecheckerboard="0"
     inkscape:deskcolor="#d1d1d1"
     showgrid="false"
     inkscape:zoom="7.0264084"
     inkscape:cx="26.685042"
     inkscape:cy="47.179154"
     inkscape:window-width="1920"
     inkscape:window-height="1005"
     inkscape:window-x="0"
     inkscape:window-y="40"
     inkscape:window-maximized="1"
     inkscape:current-layer="layer1" />
  <mask
     id="a"
     maskUnits="userSpaceOnUse"
     style="mask-type:alpha"
     width="77"
     height="45"
     x="9"
     y="25">
    <path
       fill="#34A853"
       d="M85.122 64.795a38.463 38.463 0 0 0-3.26-8.647 38.68 38.68 0 0 0-9.074-11.447 38.79 38.79 0 0 0-4.813-3.542c.016-.024.029-.05.044-.075.776-1.341 1.555-2.68 2.331-4.022l2.28-3.928 1.636-2.822a3.543 3.543 0 0 0-1.251-4.816 3.569 3.569 0 0 0-2.173-.478 3.535 3.535 0 0 0-2.698 1.743l-1.636 2.822-2.279 3.928c-.776 1.341-1.555 2.68-2.332 4.022l-.255.44c-.118-.046-.234-.093-.353-.138a38.633 38.633 0 0 0-13.786-2.525c-.133 0-.265 0-.398.002a38.652 38.652 0 0 0-12.338 2.14c-.449.156-.891.321-1.33.494l-.239-.411c-.776-1.341-1.555-2.68-2.331-4.022a136999.438 136999.438 0 0 0-3.916-6.75 3.534 3.534 0 0 0-3.364-1.748 3.517 3.517 0 0 0-1.506.484 3.526 3.526 0 0 0-1.61 2.13 3.542 3.542 0 0 0 .359 2.685l1.636 2.822 2.28 3.928c.776 1.341 1.554 2.68 2.331 4.022l.019.034a38.894 38.894 0 0 0-11.142 10.451 38.38 38.38 0 0 0-2.81 4.581 38.494 38.494 0 0 0-3.26 8.647c-.65 2.647 1.496 5.025 4.223 5.025H80.89c2.727 0 4.88-2.38 4.231-5.03Z"
       id="path2" />
  </mask>
  <defs
     id="defs202">
    <filter
       id="c"
       width="46.977"
       height="57.232"
       x="9.061"
       y="33.69"
       color-interpolation-filters="sRGB"
       filterUnits="userSpaceOnUse">
      <feFlood
         flood-opacity="0"
         result="BackgroundImageFix"
         id="feFlood85" />
      <feBlend
         in="SourceGraphic"
         in2="BackgroundImageFix"
         result="shape"
         id="feBlend87" />
      <feGaussianBlur
         result="effect1_foregroundBlur_13608_80025"
         stdDeviation="2"
         id="feGaussianBlur89" />
    </filter>
    <filter
       id="e"
       width="43.664"
       height="54.199"
       x="42.283"
       y="33.967"
       color-interpolation-filters="sRGB"
       filterUnits="userSpaceOnUse">
      <feFlood
         flood-opacity="0"
         result="BackgroundImageFix"
         id="feFlood92" />
      <feBlend
         in="SourceGraphic"
         in2="BackgroundImageFix"
         result="shape"
         id="feBlend94" />
      <feGaussianBlur
         result="effect1_foregroundBlur_13608_80025"
         stdDeviation="2"
         id="feGaussianBlur96" />
    </filter>
    <filter
       id="g"
       width="60.699"
       height="75.762"
       x="-14.822"
       y="20.52"
       color-interpolation-filters="sRGB"
       filterUnits="userSpaceOnUse">
      <feFlood
         flood-opacity="0"
         result="BackgroundImageFix"
         id="feFlood99" />
      <feBlend
         in="SourceGraphic"
         in2="BackgroundImageFix"
         result="shape"
         id="feBlend101" />
      <feGaussianBlur
         result="effect1_foregroundBlur_13608_80025"
         stdDeviation="9.408"
         id="feGaussianBlur103" />
    </filter>
    <filter
       id="h"
       width="60.699"
       height="75.762"
       x="48.67"
       y="20.52"
       color-interpolation-filters="sRGB"
       filterUnits="userSpaceOnUse">
      <feFlood
         flood-opacity="0"
         result="BackgroundImageFix"
         id="feFlood106" />
      <feBlend
         in="SourceGraphic"
         in2="BackgroundImageFix"
         result="shape"
         id="feBlend108" />
      <feGaussianBlur
         result="effect1_foregroundBlur_13608_80025"
         stdDeviation="9.408"
         id="feGaussianBlur110" />
    </filter>
    <filter
       id="i"
       width="14.174"
       height="19.449"
       x="16.531"
       y="23.619"
       color-interpolation-filters="sRGB"
       filterUnits="userSpaceOnUse">
      <feFlood
         flood-opacity="0"
         result="BackgroundImageFix"
         id="feFlood113" />
      <feBlend
         in="SourceGraphic"
         in2="BackgroundImageFix"
         result="shape"
         id="feBlend115" />
      <feGaussianBlur
         result="effect1_foregroundBlur_13608_80025"
         stdDeviation="1"
         id="feGaussianBlur117" />
    </filter>
    <filter
       id="j"
       width="49.826"
       height="50.041"
       x="1.75"
       y="6.461"
       color-interpolation-filters="sRGB"
       filterUnits="userSpaceOnUse">
      <feFlood
         flood-opacity="0"
         result="BackgroundImageFix"
         id="feFlood120" />
      <feBlend
         in="SourceGraphic"
         in2="BackgroundImageFix"
         result="shape"
         id="feBlend122" />
      <feGaussianBlur
         result="effect1_foregroundBlur_13608_80025"
         stdDeviation="9.408"
         id="feGaussianBlur124" />
    </filter>
    <filter
       id="m"
       width="13.928"
       height="19.609"
       x="64.068"
       y="23.723"
       color-interpolation-filters="sRGB"
       filterUnits="userSpaceOnUse">
      <feFlood
         flood-opacity="0"
         result="BackgroundImageFix"
         id="feFlood127" />
      <feBlend
         in="SourceGraphic"
         in2="BackgroundImageFix"
         result="shape"
         id="feBlend129" />
      <feGaussianBlur
         result="effect1_foregroundBlur_13608_80025"
         stdDeviation="1"
         id="feGaussianBlur131" />
    </filter>
    <filter
       id="o"
       width="7.307"
       height="5.727"
       x="59.057"
       y="35.578"
       color-interpolation-filters="sRGB"
       filterUnits="userSpaceOnUse">
      <feFlood
         flood-opacity="0"
         result="BackgroundImageFix"
         id="feFlood134" />
      <feBlend
         in="SourceGraphic"
         in2="BackgroundImageFix"
         result="shape"
         id="feBlend136" />
      <feGaussianBlur
         result="effect1_foregroundBlur_13608_80025"
         stdDeviation="1"
         id="feGaussianBlur138" />
    </filter>
    <filter
       id="q"
       width="7.273"
       height="5.789"
       x="28.164"
       y="35.791"
       color-interpolation-filters="sRGB"
       filterUnits="userSpaceOnUse">
      <feFlood
         flood-opacity="0"
         result="BackgroundImageFix"
         id="feFlood141" />
      <feBlend
         in="SourceGraphic"
         in2="BackgroundImageFix"
         result="shape"
         id="feBlend143" />
      <feGaussianBlur
         result="effect1_foregroundBlur_13608_80025"
         stdDeviation="1"
         id="feGaussianBlur145" />
    </filter>
    <filter
       id="r"
       width="28.906"
       height="31.027"
       x="54.463"
       y="14.832"
       color-interpolation-filters="sRGB"
       filterUnits="userSpaceOnUse">
      <feFlood
         flood-opacity="0"
         result="BackgroundImageFix"
         id="feFlood148" />
      <feBlend
         in="SourceGraphic"
         in2="BackgroundImageFix"
         result="shape"
         id="feBlend150" />
      <feGaussianBlur
         result="effect1_foregroundBlur_13608_80025"
         stdDeviation="4"
         id="feGaussianBlur152" />
    </filter>
    <radialGradient
       id="b"
       cx="0"
       cy="0"
       r="1"
       gradientTransform="matrix(-0.81039363,34.85268,-55.328545,-1.2864979,47.092957,55.799319)"
       gradientUnits="userSpaceOnUse">
      <stop
         offset=".307"
         stop-color="#4FAF53"
         id="stop155" />
      <stop
         offset="1"
         stop-color="#118016"
         id="stop157" />
      <stop
         offset="1"
         stop-color="#4FAF53"
         stop-opacity="0"
         id="stop159" />
    </radialGradient>
    <radialGradient
       id="k"
       cx="0"
       cy="0"
       r="1"
       gradientTransform="matrix(-2.6989995,0.80768524,-0.5852927,-1.955842,22.782899,27.038151)"
       gradientUnits="userSpaceOnUse">
      <stop
         stop-color="#fff"
         id="stop162" />
      <stop
         offset=".948"
         stop-color="#fff"
         stop-opacity="0"
         id="stop164" />
    </radialGradient>
    <radialGradient
       id="l"
       cx="0"
       cy="0"
       r="1"
       gradientTransform="matrix(-2.699,0.80769,-0.5853,-1.95584,71.95,27.262)"
       gradientUnits="userSpaceOnUse">
      <stop
         stop-color="#fff"
         id="stop167" />
      <stop
         offset=".948"
         stop-color="#fff"
         stop-opacity="0"
         id="stop169" />
    </radialGradient>
    <radialGradient
       id="s"
       cx="0"
       cy="0"
       r="1"
       gradientTransform="matrix(-0.56029043,0.6014093,-1.0947365,-1.0198876,23.134263,42.248578)"
       gradientUnits="userSpaceOnUse">
      <stop
         stop-color="#93E19F"
         id="stop172" />
      <stop
         offset="1"
         stop-color="#93E19F"
         stop-opacity="0"
         id="stop174" />
    </radialGradient>
    <radialGradient
       id="t"
       cx="0"
       cy="0"
       r="1"
       gradientTransform="matrix(0.55980169,0.60087916,-1.0942065,1.0193989,49.68262,41.260365)"
       gradientUnits="userSpaceOnUse">
      <stop
         stop-color="#93E19F"
         id="stop177" />
      <stop
         offset="1"
         stop-color="#93E19F"
         stop-opacity="0"
         id="stop179" />
    </radialGradient>
    <linearGradient
       id="d"
       x1="19.398"
       x2="30.779"
       y1="52.22"
       y2="60.247"
       gradientUnits="userSpaceOnUse">
      <stop
         stop-color="#A8F0B9"
         id="stop182" />
      <stop
         offset="1"
         stop-color="#ADEEBC"
         stop-opacity="0"
         id="stop184" />
    </linearGradient>
    <linearGradient
       id="f"
       x1="74.868"
       x2="65.599"
       y1="53.06"
       y2="58.921"
       gradientUnits="userSpaceOnUse">
      <stop
         stop-color="#A8F0B9"
         id="stop187" />
      <stop
         offset="1"
         stop-color="#ADEEBC"
         stop-opacity="0"
         id="stop189" />
    </linearGradient>
    <linearGradient
       id="u"
       x1="30.031"
       x2="30.54"
       y1="51.131"
       y2="54.499"
       gradientUnits="userSpaceOnUse"
       gradientTransform="matrix(0.82834182,0,0,0.82834182,-3.3478237,-2.9623198)">
      <stop
         stop-color="#E2DDE2"
         id="stop192" />
      <stop
         offset="1"
         stop-color="#E2DDE2"
         stop-opacity="0"
         id="stop194" />
    </linearGradient>
    <linearGradient
       id="v"
       x1="65.663"
       x2="65.663"
       y1="52.508"
       y2="55.3"
       gradientUnits="userSpaceOnUse"
       gradientTransform="matrix(0.82834182,0,0,0.82834182,-3.3478237,-2.9623198)">
      <stop
         stop-color="#373637"
         id="stop197" />
      <stop
         offset="1"
         stop-color="#373637"
         stop-opacity="0"
         id="stop199" />
    </linearGradient>
  </defs>
  <g
     inkscape:groupmode="layer"
     id="layer1"
     inkscape:label="main">
    <g
       mask="url(#a)"
       id="g57"
       transform="matrix(0.82834182,0,0,0.82834182,-3.3478237,-2.9623198)">
      <path
         fill="url(#b)"
         d="M 86.42,23.578 H 4.227 V 69.823 H 86.42 Z"
         id="path5"
         style="fill:url(#b)" />
      <g
         filter="url(#c)"
         opacity="0.8"
         id="g9">
        <path
           fill="url(#d)"
           fill-opacity="0.4"
           d="M 50.316,38.42 C 58.463,44.166 35.534,44.796 26.677,57.354 17.82,69.912 24.919,91.722 16.773,85.977 11.743,79.079 10.978,65.086 19.835,52.528 28.692,39.971 43.407,35.845 50.316,38.42 Z"
           id="path7"
           style="fill:url(#d)" />
      </g>
      <g
         filter="url(#e)"
         opacity="0.7"
         id="g13">
        <path
           fill="url(#f)"
           fill-opacity="0.4"
           d="m 47.858,38.652 c -7.453,5.392 13.526,5.984 21.63,17.768 8.104,11.784 1.608,32.252 9.061,26.86 C 83.151,76.807 83.852,63.676 75.748,51.892 67.644,40.107 54.181,36.236 47.858,38.652 Z"
           id="path11"
           style="fill:url(#f)" />
      </g>
      <g
         filter="url(#g)"
         opacity="0.6"
         id="g17">
        <path
           fill="#8bd8a0"
           d="M 7.96,58.972 C 4.83,68.816 3.22,77.09 4.361,77.452 5.503,77.816 8.965,70.13 12.094,60.286 15.224,50.442 28.131,39.708 26.99,39.346 25.848,38.982 11.09,49.128 7.96,58.972 Z"
           id="path15" />
      </g>
      <g
         filter="url(#h)"
         opacity="0.5"
         id="g21">
        <path
           fill="#8bd8a0"
           d="m 86.587,58.972 c 3.13,9.844 4.74,18.118 3.6,18.48 -1.143,0.364 -4.605,-7.322 -7.734,-17.166 -3.13,-9.844 -16.037,-20.578 -14.895,-20.94 1.141,-0.364 15.9,9.782 19.029,19.626 z"
           id="path19" />
      </g>
      <g
         filter="url(#i)"
         opacity="0.1"
         id="g25">
        <path
           fill="#202124"
           d="m 28.66,41.056 c 0.37,-0.242 -1.586,-3.891 -4.37,-8.15 -2.785,-4.26 -5.343,-7.516 -5.713,-7.274 -0.37,0.242 1.587,3.891 4.371,8.15 2.785,4.26 5.342,7.516 5.713,7.274 z"
           id="path23" />
      </g>
      <g
         filter="url(#j)"
         opacity="0.3"
         id="g29">
        <path
           fill="#ffffff"
           d="m 27.507,30.127 c 3.242,5.324 4.823,7.764 5.183,7.544 0.36,-0.219 -0.637,-3.014 -3.88,-8.338 -3.124,-7.111 -8.762,-2.87 -8.205,-2.093 1.083,2.085 2.757,-4.578 6.902,2.887 z"
           id="path27" />
      </g>
      <path
         fill="url(#k)"
         fill-opacity="0.9"
         d="m 18.478,28.284 c 0.585,2.02 2.987,3.1 5.364,2.412 2.378,-0.688 3.831,-2.884 3.246,-4.905 -0.585,-2.02 -2.986,-3.1 -5.364,-2.412 -2.377,0.688 -3.83,2.884 -3.246,4.904 z"
         opacity="0.15"
         id="path31"
         style="fill:url(#k)" />
      <path
         fill="url(#l)"
         fill-opacity="0.9"
         d="m 67.644,28.508 c 0.585,2.02 2.987,3.1 5.364,2.413 2.378,-0.688 3.831,-2.884 3.246,-4.905 -0.585,-2.02 -2.986,-3.1 -5.364,-2.412 -2.377,0.688 -3.83,2.884 -3.246,4.904 z"
         opacity="0.15"
         id="path33"
         style="fill:url(#l)" />
      <g
         filter="url(#m)"
         opacity="0.1"
         id="g37">
        <path
           fill="#202124"
           d="m 66.116,41.32 c -0.374,-0.236 1.524,-3.917 4.24,-8.22 2.715,-4.304 5.22,-7.601 5.594,-7.365 0.374,0.236 -1.524,3.916 -4.24,8.22 -2.715,4.303 -5.22,7.6 -5.594,7.365 z"
           id="path35" />
      </g>
      <mask
         id="n"
         width="14"
         height="9"
         x="60"
         y="33"
         maskUnits="userSpaceOnUse">
        <path
           fill="#000000"
           d="M 68.333,41.39 C 66.509,40.252 62.345,38.3 60.49,37.465 l 1.226,-4.336 11.974,4.818 c -1.026,1.621 -3.533,4.58 -5.357,3.443 z"
           id="path39" />
      </mask>
      <g
         filter="url(#o)"
         mask="url(#n)"
         opacity="0.3"
         style="mix-blend-mode:screen"
         id="g44">
        <path
           fill="#81c995"
           d="m 62.868,38.127 c -0.91,-0.447 -1.717,-0.665 -1.804,-0.487 -0.087,0.177 0.594,0.558 1.503,1.004 0.909,0.447 1.701,0.79 1.788,0.613 0.087,-0.177 -0.579,-0.683 -1.487,-1.13 z"
           id="path42" />
      </g>
      <mask
         id="p"
         width="15"
         height="10"
         x="20"
         y="33"
         maskUnits="userSpaceOnUse">
        <path
           fill="#000000"
           d="m 26.241,41.743 c 1.8,-1.175 5.924,-3.213 7.76,-4.085 l -1.314,-4.31 -11.872,5.063 c 1.058,1.6 3.626,4.507 5.426,3.332 z"
           id="path46" />
      </mask>
      <g
         filter="url(#q)"
         mask="url(#p)"
         opacity="0.3"
         style="mix-blend-mode:screen"
         id="g51">
        <path
           fill="#81c995"
           d="m 31.637,38.373 c 0.899,-0.465 1.702,-0.7 1.793,-0.524 0.09,0.176 -0.583,0.57 -1.482,1.036 -0.9,0.465 -1.685,0.825 -1.776,0.649 -0.09,-0.176 0.565,-0.695 1.465,-1.16 z"
           id="path49" />
      </g>
      <g
         filter="url(#r)"
         opacity="0.3"
         id="g55">
        <path
           fill="#ffffff"
           d="m 67.451,30.41 c -3.032,5.252 -4.52,7.657 -4.903,7.436 -0.383,-0.221 0.484,-2.985 3.516,-8.237 3.456,-9.124 10.306,-7.918 9.182,-2.931 -0.886,2.05 -3.956,-3.634 -7.795,3.732 z"
           id="path53" />
      </g>
    </g>
    <path
       fill="url(#s)"
       fill-opacity="0.7"
       d="m 22.940432,43.256669 c 0.386007,-0.437364 0.06045,-1.365937 -0.727284,-2.074168 -0.786925,-0.708233 -1.739519,-0.927741 -2.124697,-0.490376 -0.386009,0.436534 -0.06045,1.365106 0.727284,2.073338 0.786925,0.708233 1.739515,0.927741 2.125526,0.491206 z"
       id="path59"
       style="fill:url(#s);stroke-width:0.828342" />
    <path
       fill="url(#t)"
       fill-opacity="0.7"
       d="m 50.008158,42.13841 c 0.787753,-0.708235 1.11329,-1.636806 0.727282,-2.073342 -0.386006,-0.437365 -1.336941,-0.217852 -2.124693,0.490378 -0.787755,0.708233 -1.113292,1.636803 -0.727285,2.07334 0.386007,0.437365 1.336944,0.217852 2.124696,-0.490376 z"
       id="path61"
       style="fill:url(#t);stroke-width:0.828342" />
    <path
       fill="#011b04"
       d="m 23.459801,45.493193 c 0.95508,-2.385622 -0.04802,-3.855105 -0.66847,-4.313177 -1.790876,-2.215813 -4.203006,-0.505289 -4.918695,0.458072 -0.716514,0.939341 -1.766855,2.625846 -0.740536,4.938575 1.027146,2.31356 5.13406,1.903531 6.327701,-1.08347 z m 24.759139,0.05301 c -0.955075,-2.360773 0.04803,-3.854272 0.668474,-4.288324 1.790873,-2.216645 4.202175,-0.50529 4.918691,0.458072 0.716516,0.93934 1.766852,2.625846 0.740539,4.914551 -1.027144,2.288711 -5.133234,1.903531 -6.327704,-1.060277 z"
       opacity="0.09"
       id="path63"
       style="stroke-width:0.828342" />
    <path
       fill="#202124"
       d="m 53.617244,47.178867 c 1.480247,-0.987383 1.71881,-3.276918 0.52517,-5.083534 -1.193642,-1.806612 -3.366382,-2.457688 -4.847457,-1.469476 -1.480248,0.987382 -1.718811,3.276092 -0.52517,5.083532 1.193641,1.806614 3.36721,2.457691 4.847457,1.469478 z"
       id="path65"
       style="stroke-width:0.828342" />
    <path
       fill="#000000"
       d="m 22.889075,45.633182 c 1.19364,-1.806612 0.979099,-4.047277 -0.477956,-5.034664 -1.456224,-0.964188 -3.580919,-0.289917 -4.775387,1.493503 -1.192815,1.806615 -0.978274,4.047279 0.477953,5.035488 1.456224,0.963362 3.581751,0.289093 4.77539,-1.494327 z m 25.884024,0.02983 c -1.19364,-1.80744 -0.979099,-4.048106 0.477954,-5.036319 1.456226,-0.963358 3.581748,-0.288263 4.775391,1.494328 1.193641,1.806615 0.979101,4.04728 -0.477952,5.035492 -1.456227,0.963361 -3.580923,0.28909 -4.775393,-1.493501 z"
       id="path67"
       style="stroke-width:0.828342" />
    <path
       fill="url(#u)"
       d="m 23.308215,42.107758 c -0.687521,-1.936661 -2.299476,-1.957371 -3.019305,-1.734547 0.609661,-0.356187 1.788388,-0.11928 2.348346,0.401745 0.428256,0.414172 0.642797,1.07022 0.697468,1.355169 l -0.02649,-0.02154 z"
       opacity="0.8"
       id="path69"
       style="fill:url(#u);stroke-width:0.828342" />
    <path
       fill="url(#v)"
       d="m 50.637699,40.532252 c -1.695618,0.0961 -2.244806,1.445459 -2.316046,2.095704 0.167327,-0.409201 0.787755,-1.252451 1.862113,-1.469477 1.07436,-0.192175 2.483368,1.036255 3.056582,1.686504 l 0.525169,-0.602203 c -0.333822,-0.626227 -1.433032,-1.830637 -3.127818,-1.710528 z"
       id="path71"
       style="fill:url(#v);stroke-width:0.828342" />
    <path
       fill="#000000"
       d="m 53.595706,41.928012 c 1.146426,1.39741 1.265707,3.059894 1.122405,3.759014 0.286604,-1.373391 0.190516,-2.698739 -0.907863,-4.04811 -0.596406,-0.746335 -1.527464,-1.156364 -2.195936,-1.34937 -0.0961,-0.02402 -0.215366,-0.04803 -0.286603,-0.07207 a 1.5978714,1.5978714 0 0 0 -0.40589,-0.07206 c 0.119284,0.02484 0.262584,0.04803 0.40589,0.07206 0.09523,0 0.190515,0.04803 0.286603,0.07207 0.477126,0.168985 1.121579,0.53014 2.004589,1.638466 z"
       id="path73"
       style="stroke-width:0.828342" />
    <path
       fill="#e2dce1"
       d="m 19.562455,41.35894 c -0.669302,0.144129 -1.170449,0.843249 -1.313751,1.180384 l 0.334649,0.505288 c 0,0 0.238565,-0.409198 0.501148,-0.674269 0.262584,-0.265069 0.668472,-0.553333 0.835799,-0.674271 L 19.585647,41.35894 Z m 32.552177,0.01571 c 0.645277,0.120937 1.146426,0.795205 1.313751,1.132341 l -0.33465,0.482095 c 0,0 -0.238564,-0.385177 -0.501149,-0.650249 -0.262582,-0.265067 -0.645277,-0.530136 -0.811776,-0.65025 z"
       opacity="0.8"
       id="path75"
       style="stroke-width:0.828342" />
    <g
       fill="#e2dce1"
       opacity="0.8"
       id="g79"
       transform="matrix(0.82834182,0,0,0.82834182,-3.3478237,-2.9623198)">
      <path
         d="m 30.947,57.86 c -0.375,0.203 -0.98,0.494 -1.24,0.61 l -0.23,0.698 a 3.781,3.781 0 0 0 1.21,-0.698 z m 1.207,-3.058 a 4.56,4.56 0 0 0 -0.23,-0.61 v 0.261 c 0.115,0.204 0.202,0.582 0.23,0.756 0,-0.058 0.058,-0.232 0,-0.436 v 0.03 z"
         id="path77" />
    </g>
    <g
       fill="#e2dce1"
       opacity="0.8"
       id="g83"
       transform="matrix(0.82834182,0,0,0.82834182,-3.3478237,-2.9623198)">
      <path
         d="m 63.588,57.922 c 0.375,0.204 0.98,0.494 1.24,0.61 l 0.23,0.699 a 3.782,3.782 0 0 1 -1.21,-0.698 z m -1.185,-3.057 a 4.56,4.56 0 0 1 0.23,-0.611 v 0.262 c -0.115,0.203 -0.202,0.581 -0.23,0.756 0,-0.058 -0.058,-0.233 0,-0.436 z"
         id="path81" />
    </g>
  </g>
</svg>
